{"title":"Wrong Turn At Tahoe.2010.DvdRip.~VKS3385","uid":5747577,"size":729951753,"categoryP":"video","categoryS":"movies","magnet":"?xt=urn:btih:17246eb01deca365238bd927c373571e4cb1919d&amp;dn=Wrong+Turn+At+Tahoe.2010.DvdRip.%7EVKS3385&amp;tr=udp%3A%2F%2Ftracker.openbittorrent.com%3A80&amp;tr=udp%3A%2F%2Fopen.demonii.com%3A1337&amp;tr=udp%3A%2F%2Ftracker.coppersurfer.tk%3A6969&amp;tr=udp%3A%2F%2Fexodus.desync.com%3A6969","seeders":0,"leechers":1,"uploader":"3385VKSH","files":-1,"time":1281283448,"description":"IT IS A DVDRIP............\n\nGeneral\nComplete name                    : Wrong Turn At Tahoe.2010.DvdRip~VKS3385\nFormat                           : Matroska\nFile size                        : 696 MiB\nDuration                         : 1h 26mn\nOverall bit rate                 : 1 123 Kbps\nEncoded date                     : UTC 2010-07-22 06:07:42\nWriting application              : mkvmerge v4.1.1 ('Bouncin' Back') built on Jul  3 2010 22:54:08\nWriting library                  : libebml v1.0.0 + libmatroska v1.0.0\n\nVideo\nID                               : 1\nFormat                           : MPEG-4 Visual\nFormat profile                   : Advanced Simple@L5\nFormat settings, BVOP            : Yes\nFormat settings, QPel            : No\nFormat settings, GMC             : No warppoints\nFormat settings, Matrix          : Default (H.263)\nCodec ID                         : XVID\nCodec ID/Hint                    : XviD\nDuration                         : 1h 26mn\nBit rate                         : 973 Kbps\nWidth                            : 720 pixels\nHeight                           : 304 pixels\nDisplay aspect ratio             : 2.35:1\nFrame rate                       : 25.000 fps\nOriginal frame rate              : 23.976 fps\nColor space                      : YUV\nChroma subsampling               : 4:2:0\nBit depth                        : 8 bits\nScan type                        : Progressive\nBits/(Pixel*Frame)               : 0.178\nStream size                      : 603 MiB (87%)\nWriting library                  : XviD 1.2.1 (UTC 2008-12-04)\n\nAudio\nID                               : 2\nFormat                           : MPEG Audio\nFormat version                   : Version 1\nFormat profile                   : Layer 3\nMode                             : Joint stereo\nMode extension                   : MS Stereo\nCodec ID                         : A_MPEG/L3\nCodec ID/Hint                    : MP3\nDuration                         : 1h 26mn\nBit rate mode                    : Constant\nBit rate                         : 128 Kbps\nChannel(s)                       : 2 channels\nSampling rate                    : 44.1 KHz\nVideo delay                      : 6s 200ms\nStream size                      : 79.3 MiB (11%)\n\n\nScreenshots:\n &lt;a href=&quot;\nhttp://img822.imageshack.us/img822/3415/wtatmkvsnapshot00145020.jpg&quot; rel=&quot;nofollow&quot; target=&quot;_NEW&quot;&gt;\nhttp://img822.imageshack.us/img822/3415/wtatmkvsnapshot00145020.jpg&lt;/a&gt;\n &lt;a href=&quot;\nhttp://img541.imageshack.us/img541/874/wtatmkvsnapshot00241220.jpg&quot; rel=&quot;nofollow&quot; target=&quot;_NEW&quot;&gt;\nhttp://img541.imageshack.us/img541/874/wtatmkvsnapshot00241220.jpg&lt;/a&gt;\n &lt;a href=&quot;\nhttp://img214.imageshack.us/img214/5899/wtatmkvsnapshot00334920.jpg&quot; rel=&quot;nofollow&quot; target=&quot;_NEW&quot;&gt;\nhttp://img214.imageshack.us/img214/5899/wtatmkvsnapshot00334920.jpg&lt;/a&gt;\n &lt;a href=&quot;\nhttp://img441.imageshack.us/img441/5655/wtatmkvsnapshot00531520.jpg&quot; rel=&quot;nofollow&quot; target=&quot;_NEW&quot;&gt;\nhttp://img441.imageshack.us/img441/5655/wtatmkvsnapshot00531520.jpg&lt;/a&gt;\n &lt;a href=&quot;\nhttp://img541.imageshack.us/img541/5899/wtatmkvsnapshot01073220.jpg&quot; rel=&quot;nofollow&quot; target=&quot;_NEW&quot;&gt;\nhttp://img541.imageshack.us/img541/5899/wtatmkvsnapshot01073220.jpg&lt;/a&gt;\n &lt;a href=&quot;\nhttp://img214.imageshack.us/img214/1570/wtatmkvsnapshot01194420.jpg&quot; rel=&quot;nofollow&quot; target=&quot;_NEW&quot;&gt;\nhttp://img214.imageshack.us/img214/1570/wtatmkvsnapshot01194420.jpg&lt;/a&gt;\n &lt;a href=&quot;\nhttp://img541.imageshack.us/img541/6827/wtatmkvsnapshot00075020.jpg&quot; rel=&quot;nofollow&quot; target=&quot;_NEW&quot;&gt;\nhttp://img541.imageshack.us/img541/6827/wtatmkvsnapshot00075020.jpg&lt;/a&gt;","torrent":{"xt":"urn:btih:17246eb01deca365238bd927c373571e4cb1919d","amp;dn":"Wrong+Turn+At+Tahoe.2010.DvdRip.%7EVKS3385","amp;tr":["udp%3A%2F%2Ftracker.openbittorrent.com%3A80","udp%3A%2F%2Fopen.demonii.com%3A1337","udp%3A%2F%2Ftracker.coppersurfer.tk%3A6969","udp%3A%2F%2Fexodus.desync.com%3A6969"],"infoHash":"17246eb01deca365238bd927c373571e4cb1919d","infoHashBuffer":{"type":"Buffer","data":[23,36,110,176,29,236,163,101,35,139,217,39,195,115,87,30,76,177,145,157]},"announce":[],"urlList":[]}}